<?xml version="1.0" encoding="UTF-8"?>
<!DOCTYPE svg PUBLIC "-//W3C//DTD SVG 1.1//EN" "http://www.w3.org/Graphics/SVG/1.1/DTD/svg11.dtd">
<!-- Creator: CorelDRAW -->
<svg xmlns="http://www.w3.org/2000/svg" xml:space="preserve" width="2480.32px" height="3507.87px" version="1.1" style="shape-rendering:geometricPrecision; text-rendering:geometricPrecision; image-rendering:optimizeQuality; fill-rule:evenodd; clip-rule:evenodd"
viewBox="0 0 448064 537595"
 xmlns:xlink="http://www.w3.org/1999/xlink"
 xmlns:xodm="http://www.corel.com/coreldraw/odm/2003">
 <defs>
  <style type="text/css">
   <![CDATA[
    .fil0 {fill:#643F22;fill-rule:nonzero}
    .fil1 {fill:#7E469A;fill-rule:nonzero}
   ]]>
  </style>
 </defs>
 <g id="圖層_x0020_1">
  <metadata id="CorelCorpID_0Corel-Layer"/>
  <path class="fil0" d="M226824 54781c0,0 113268,37371 116019,31934 7541,-3837 349,-11965 -5368,-14581l-42005 -19233c-2,-12 -2,-14 -5,-26l21251 -24197c2751,-5436 8780,-17323 3065,-19940l-4761 -3400c-10240,-7315 -24888,-7279 -34132,1153 -1138,1039 -1998,2047 -2456,2953l-3361 33609c-217,117 -294,158 -511,274l-38841 -17783c-5714,-2616 -12576,-331 -15328,5106 -2751,5436 720,21515 6433,24131z"/>
  <g id="_503515256">
   <path class="fil1" d="M276761 345795l-69467 20332c-7578,2214 -11918,10155 -9711,17731 1763,5984 7078,9955 12978,10262 1567,81 3171,-98 4754,-562l69468 -20332c7576,-2213 11918,-10154 9711,-17732 -2233,-7571 -10193,-11901 -17733,-9699z"/>
   <path class="fil1" d="M169580 191859c-3628,0 -6820,-2593 -7600,-6157l-2976 -13730c-4138,-19050 -21279,-32871 -40744,-32871 -2555,0 -5148,243 -7728,728l-13833 2593c-486,89 -984,140 -1482,140 -4369,-580 -6987,-3109 -7612,-6386 -780,-4177 2018,-8251 6233,-9043l11048 -2069c11189,-2095 20794,-8468 27078,-17952 6284,-9458 8404,-20800 5978,-31926l-2388 -10965c-167,-856 -218,-1795 -116,-2702 396,-3173 2849,-5843 6105,-6558 525,-115 1100,-180 1636,-180 3627,0 6821,2588 7600,6151l2975 13718c4126,19044 21267,32870 40746,32870 2555,0 5146,-235 7727,-722l13821 -2598c459,-83 957,-129 1430,-129 3743,0 6974,2683 7677,6380 779,4184 -2031,8246 -6259,9037l-11023 2076c-11189,2095 -20794,8468 -27079,17952 -6284,9459 -8404,20801 -5977,31925l2389 10973c906,4189 -1776,8347 -5965,9266 -537,115 -1111,179 -1661,179z"/>
   <path class="fil1" d="M249714 478949c-1483,-5373 -7011,-8524 -12416,-7065 -5381,1483 -8543,7041 -7071,12422l6887 25077c1238,4479 5307,7427 9745,7427 881,0 1776,-117 2671,-362 5381,-1483 8543,-7041 7072,-12422l-6888 -25077z"/>
   <path class="fil1" d="M311571 461950c-1483,-5381 -7035,-8554 -12416,-7065 -5379,1483 -8541,7041 -7071,12421l6888 25070c1237,4487 5306,7428 9744,7428 883,0 1777,-116 2671,-361 5381,-1484 8543,-7042 7073,-12423l-6889 -25070z"/>
   <path class="fil1" d="M439969 243924c-7800,-3719 -17256,182 -19907,8790 -7738,25132 -30260,43220 -56209,47473 -51193,8387 -92970,-17890 -107275,-58776 -7866,-22445 -6508,-46607 3815,-68070 10318,-21435 28360,-37568 50810,-45429 22477,-7880 46625,-6515 68059,3805 7123,3432 15664,423 19084,-6673 3420,-7114 429,-15658 -6680,-19077 -42139,-20285 -92287,-14370 -131046,18979 -11498,9893 -19591,22957 -26275,36576 -16767,34168 -56223,55711 -94145,48642 -38262,-7133 -68447,-36460 -73998,-75415 -2473,-17363 312,-35256 7916,-51058 21302,-44258 74641,-62923 118888,-41622 7131,3413 15650,422 19082,-6686 3420,-7109 430,-15652 -6681,-19072 -58461,-28139 -139885,-13516 -167518,48918 -15428,34862 -3839,85768 16470,118753 6398,10389 3934,24023 -6615,30150 -25640,14887 -44769,41907 -47493,77897 -1855,24485 6675,49178 23478,67083 10181,10848 22562,19638 36374,25229 17182,6955 37378,8454 55449,12258 27264,5739 47662,26801 47662,55827 0,42106 -45336,68469 -83013,50947 -18662,-9460 -31611,-28628 -31611,-50947 0,-7691 -6229,-13927 -13928,-13927 -7699,0 -13928,6236 -13928,13927 -3,35506 24282,69971 58131,81135 35091,11573 76327,-2602 98443,-31700 3504,-4611 6542,-9573 9054,-14792 5505,-11440 8307,-23485 8735,-35432 1368,741 2687,1545 4098,2224 13260,6386 27283,9407 41106,9407 10175,-12 19102,6782 21799,16593l9712 35312c1238,4486 5308,7428 9744,7428 882,0 1776,-117 2685,-367 5368,-1479 8527,-7037 7059,-12416l-10171 -36983c-2608,-9478 1738,-19170 10068,-24388 14619,-9159 26929,-22358 34958,-39026 3421,-7115 430,-15658 -6679,-19077 -8426,-4061 -18841,888 -20406,10979 -2159,13933 -17749,26159 -31171,30477 -44758,14398 -78235,-7394 -90251,-41653 -7666,-21901 -3588,-45987 11801,-64861 5772,-7082 13313,-12703 21557,-16638 29688,-14175 50536,-3982 73112,6569 30676,14340 63546,19075 95935,7552 29037,-10329 53228,-31990 66595,-59768 3420,-7109 429,-15652 -6679,-19077zm-283866 80481l0 0c-120,221 -332,358 -443,589 -10965,22802 -33669,37584 -60924,37911 -4789,57 -9630,-596 -14256,-1830 -44509,-11878 -55871,-52684 -37971,-89865 13769,-28590 41327,-35010 71011,-28058 41878,7633 63177,3232 83747,-8410 11956,-6768 26985,-730 31095,12380 393,1248 804,2492 1240,3732 2761,7890 6348,15331 10582,22315 -34370,157 -67326,18948 -84081,51236z"/>
  </g>
 </g>
</svg>
