<?xml version="1.0" encoding="UTF-8"?>
<!DOCTYPE svg PUBLIC "-//W3C//DTD SVG 1.1//EN" "http://www.w3.org/Graphics/SVG/1.1/DTD/svg11.dtd">
<!-- Creator: CorelDRAW -->
<svg xmlns="http://www.w3.org/2000/svg" xml:space="preserve" width="2480.32px" height="3507.87px" version="1.1" style="shape-rendering:geometricPrecision; text-rendering:geometricPrecision; image-rendering:optimizeQuality; fill-rule:evenodd; clip-rule:evenodd"
viewBox="0 0 231658 57086"
 xmlns:xlink="http://www.w3.org/1999/xlink"
 xmlns:xodm="http://www.corel.com/coreldraw/odm/2003">
 <defs>
  <style type="text/css">
   <![CDATA[
    .fil0 {fill:#2D2A2B;fill-rule:nonzero}
   ]]>
  </style>
 </defs>
 <g id="圖層_x0020_1">
  <metadata id="CorelCorpID_0Corel-Layer"/>
  <g id="_506067232">
   <g>
    <g>
     <path class="fil0" d="M2853 33781l0 -27986c0,-1685 699,-2506 2094,-2712l30495 0c1479,206 2218,1069 2262,2836l0 27862c-44,1727 -823,2548 -2343,2548l-30414 0c-1395,0 -2094,-781 -2094,-2548zm4069 -24780l0 0 0 8014c0,370 123,575 327,575l10521 0c288,0 412,-205 412,-575l0 -9206c0,-369 -124,-575 -412,-575l-9246 0c-1067,0 -1643,615 -1602,1767zm1438 23137l0 0 9410 0c288,0 412,-206 412,-576l0 -9329c0,-369 -124,-575 -412,-575l-10521 0c-204,0 -327,206 -327,575l0 8096c0,988 491,1603 1438,1809zm23632 -24904l0 0 -9373 0c-204,0 -328,206 -328,575l0 9206c0,370 124,575 328,575l10768 0c204,0 328,-205 328,-575l0 -7850c43,-1316 -532,-1973 -1723,-1931zm1723 14999l0 0c0,-369 -124,-575 -328,-575l-10768 0c-204,0 -328,206 -328,575l0 9329c0,370 124,576 328,576l9373 0c983,0 1519,-576 1723,-1685l0 -8220z"/>
     <path class="fil0" d="M82861 35632c-495,-206 -699,-618 -619,-1193l536 -1931c203,-412 615,-534 1110,-412 576,166 1152,330 1684,412 327,-124 535,-370 615,-822l0 -7314c0,-288 -120,-454 -368,-454l-9577 0c-1191,0 -1767,-657 -1767,-2054l0 -11836c0,-1437 576,-2137 1767,-2137l8674 0 1067 -2218 -11919 0c-740,0 -1108,451 -1108,1355 -83,11054 -1275,20425 -3493,28192 -288,576 -740,863 -1315,822l-2302 -740c-412,-124 -576,-616 -452,-1479 2550,-8136 3741,-18083 3617,-29919 0,-1684 656,-2548 1931,-2548l31438 0c699,0 1071,493 1071,1439l0 1727c0,739 -332,1151 -947,1151l-12000 0 -1067 2218 10477 0c1071,0 1603,658 1603,1973l0 12000c0,1397 -576,2054 -1724,2054l-9413 0c-164,0 -247,82 -247,248l0 10561c-164,1850 -1192,2589 -2999,2260 -1315,-246 -2754,-698 -4273,-1355zm-9082 -1521l0 0c-455,-494 -455,-1069 -83,-1727 1807,-1931 3329,-4151 4645,-6697 368,-618 819,-782 1355,-494l1479 1109c535,370 659,904 371,1685 -1275,2836 -2837,5342 -4768,7479 -576,494 -1151,535 -1687,82l-1312 -1437zm23424 -22398l0 0 -18411 0c-451,0 -699,287 -699,905l0 1149c0,288 124,412 371,412l19151 0c244,0 368,-124 368,-412l0 -1149c0,-618 -288,-905 -780,-905zm-19110 6575l0 0 0 1027c0,658 248,946 699,946l18411 0c492,0 780,-288 780,-946l0 -1027c0,-288 -124,-410 -368,-410l-19151 0c-247,0 -371,122 -371,410zm21001 16604l0 0c-1151,-2384 -2630,-4768 -4441,-7234 -204,-656 -80,-1150 288,-1520l1399 -987c535,-288 987,-164 1395,248 1687,2218 3290,4807 4769,7725 124,657 0,1109 -412,1438l-1643 986c-576,166 -1027,-40 -1355,-656z"/>
     <path class="fil0" d="M130321 16193c-409,-83 -656,-453 -696,-1151l492 -2590c40,-492 411,-779 1027,-821l5712 1521c535,123 783,615 783,1397l-495 2424c-204,452 -536,617 -1028,535l-5795 -1315zm167 20218l0 0c-619,-451 -783,-1067 -452,-1849l4230 -11547c207,-700 659,-987 1275,-904l1810 740c576,451 780,985 576,1766l-4153 12000c-452,618 -987,822 -1603,658l-1683 -864zm1108 -32383l0 0c-492,-452 -576,-945 -288,-1397l1479 -2424c452,-288 907,-288 1359,82l4888 3781c492,452 576,985 248,1685l-1235 1972c-452,328 -863,328 -1315,0l-5136 -3699zm8673 32631l0 0c-659,0 -987,-370 -987,-1069l0 -1643c0,-658 328,-1029 987,-1029l1108 0c207,0 328,-122 328,-410l0 -9905c0,-1643 739,-2464 2178,-2464l19438 0c1523,0 2219,821 2219,2464l0 9905c0,288 124,410 331,410l740 0c656,0 987,371 987,1029l0 1643c0,699 -331,1069 -987,1069l-26342 0zm4230 -35261l0 0 17795 0c1439,0 2179,863 2179,2506l0 11302c0,1645 -740,2506 -2179,2506l-17795 0c-1479,0 -2175,-861 -2175,-2506l0 -11302c0,-1643 696,-2506 2175,-2506zm1275 31520l0 0 2302 0c247,0 371,-122 371,-410l0 -8220c0,-246 -124,-370 -371,-370l-2302 0c-245,0 -369,124 -369,370l0 8220c0,288 124,410 369,410zm247 -27329l0 0 0 1687c0,286 81,451 328,451l14098 0c204,0 328,-165 328,-451l0 -1687c0,-246 -124,-370 -328,-370l-14098 0c-247,0 -328,124 -328,370zm0 6247l0 0 0 1685c0,288 81,412 328,412l14098 0c204,0 328,-124 328,-412l0 -1685c0,-245 -124,-369 -328,-369l-14098 0c-247,0 -328,124 -328,369zm6368 21082l0 0 2386 0c204,0 328,-122 328,-410l0 -8220c0,-246 -124,-370 -328,-370l-2386 0c-204,0 -328,124 -328,370l0 8220c0,288 124,410 328,410zm6743 0l0 0 2342 0c204,0 328,-122 328,-410l0 -8220c0,-246 -124,-370 -328,-370l-2342 0c-248,0 -372,124 -372,370l0 8220c0,288 124,410 372,410z"/>
     <path class="fil0" d="M199437 12906l0 -1685c0,-781 331,-1193 947,-1193l24495 0c696,0 984,412 984,1193l0 1685c0,779 -288,1191 -984,1191l-3945 0c204,164 368,370 491,615l3986 6412c248,617 207,1191 -328,1727l-1850 1603c-533,122 -984,-82 -1232,-576l-1067 -1521 -6783 328 0 2302c0,246 123,328 328,328l12946 0c700,0 1068,412 1068,1233l0 1645c0,822 -368,1233 -1068,1233l-12946 0c-205,0 -328,122 -328,370l0 2013c0,287 123,369 328,369l16236 0c615,0 943,412 943,1193l0 1725c0,740 -328,1151 -943,1151l-35839 0c-655,0 -983,-411 -983,-1151l0 -1725c0,-781 328,-1193 983,-1193l15289 0c205,0 328,-82 328,-369l0 -2013c0,-248 -123,-370 -328,-370l-12494 0c-697,0 -1028,-411 -1028,-1233l0 -1645c0,-821 331,-1233 1028,-1233l12494 0c205,0 328,-82 328,-328l0 -2054 -10848 575c-659,40 -1028,-411 -1068,-1315l-83 -1767c-40,-987 328,-1480 1027,-1480l2754 -82 2546 -4767 -4437 0c-616,0 -947,-412 -947,-1191zm-1231 -3988l0 0 0 4274c0,699 -248,1069 -780,1069l-2262 0c-575,0 -863,-370 -863,-1069l0 -7685c207,-1315 1027,-2013 2506,-2013l13439 0c288,0 411,-164 411,-451l0 -1973c0,-699 248,-1029 783,-1029l2466 0c573,0 860,330 860,1029l0 1973c0,287 124,451 332,451l13806 0c1479,0 2262,698 2383,2013l0 7685c0,699 -288,1069 -780,1069l-2259 0c-535,0 -823,-370 -823,-1069l0 -4274c0,-821 -328,-1273 -1027,-1273l-27125 0c-739,0 -1067,452 -1067,1273zm19686 6452l0 0 1479 -1273 -10029 0 -2466 4603 11427 -494 -455 -821c-451,-782 -408,-1480 44,-2015z"/>
    </g>
   </g>
   <g>
    <polygon class="fil0" points="8797,46138 8797,47536 5218,47536 5218,56875 3595,56875 3595,47536 0,47536 0,46138 "/>
    <polygon class="fil0" points="13852,46138 13852,56875 12228,56875 12228,46138 "/>
    <path class="fil0" d="M23042 46138l4135 10737 -1758 0 -1008 -2767 -4617 0 -1008 2767 -1744 0 4135 -10737 1865 0zm872 6617l0 0 -1774 -4858 -60 0 -1790 4858 3624 0z"/>
    <polygon class="fil0" points="31992,46138 37481,54123 37541,54123 37541,46138 39181,46138 39181,56875 37587,56875 32037,48800 31977,48800 31977,56875 30337,56875 30337,46138 "/>
    <polygon class="fil0" points="51516,46138 54614,51055 57712,46138 59682,46138 55426,52590 55426,56875 53801,56875 53801,52590 49545,46138 "/>
    <path class="fil0" d="M64557 46138l0 6677c0,962 210,1669 662,2135 450,467 1158,707 2135,707 963,0 1669,-240 2121,-707 436,-466 661,-1173 661,-2135l0 -6677 1639 0 0 6646c0,1400 -391,2467 -1158,3204 -767,722 -1850,1098 -3263,1098 -1429,0 -2512,-361 -3264,-1083 -781,-752 -1173,-1819 -1173,-3219l0 -6646 1640 0z"/>
    <path class="fil0" d="M80936 46138l4135 10737 -1759 0 -1008 -2767 -4617 0 -1007 2767 -1745 0 4136 -10737 1865 0zm872 6617l0 0 -1775 -4858 -60 0 -1790 4858 3625 0z"/>
    <polygon class="fil0" points="89885,46138 95375,54123 95435,54123 95435,46138 97074,46138 97074,56875 95480,56875 89931,48800 89871,48800 89871,56875 88231,56875 88231,46138 "/>
    <path class="fil0" d="M116312 46859c767,602 1248,1489 1443,2692l-1654 0c-150,-721 -481,-1263 -992,-1624 -512,-376 -1204,-556 -2045,-556 -1038,0 -1865,346 -2481,1067 -663,752 -978,1790 -978,3114 0,1293 286,2286 887,2977 632,752 1624,1128 2963,1128 526,0 1022,-75 1488,-196 452,-120 842,-300 1204,-525l0 -2331 -2963 0 0 -1399 4602 0 0 4511c-556,437 -1204,767 -1941,1008 -781,240 -1638,361 -2571,361 -1714,0 -3037,-542 -3985,-1625 -888,-1007 -1323,-2315 -1323,-3909 0,-1610 435,-2933 1323,-3971 933,-1112 2196,-1654 3775,-1654 1368,0 2451,301 3248,932z"/>
    <path class="fil0" d="M126615 46138c1083,0 1956,240 2587,737 662,540 992,1308 992,2330 0,572 -150,1068 -451,1504 -346,481 -812,798 -1397,948l0 30c962,211 1488,842 1609,1895l179 1714c60,662 271,1188 633,1579l-1775 0c-257,-331 -407,-812 -466,-1414l-137 -1338c-59,-601 -255,-1023 -571,-1293 -330,-271 -796,-392 -1413,-392l-2903 0 0 4437 -1638 0 0 -10737 4751 0zm-3113 4902l0 0 2903 0c721,0 1263,-165 1625,-466 346,-301 525,-737 525,-1309 0,-600 -179,-1037 -512,-1308 -359,-285 -901,-421 -1654,-421l-2887 0 0 3504z"/>
    <polygon class="fil0" points="142093,46138 142093,47536 136016,47536 136016,50665 141732,50665 141732,52063 136016,52063 136016,55477 142348,55477 142348,56875 134378,56875 134378,46138 "/>
    <polygon class="fil0" points="153841,46138 153841,47536 147763,47536 147763,50665 153479,50665 153479,52063 147763,52063 147763,55477 154096,55477 154096,56875 146125,56875 146125,46138 "/>
    <polygon class="fil0" points="159526,46138 165015,54123 165076,54123 165076,46138 166714,46138 166714,56875 165121,56875 159572,48800 159511,48800 159511,56875 157872,56875 157872,46138 "/>
    <polygon class="fil0" points="172582,46138 172582,50665 178207,50665 178207,46138 179845,46138 179845,56875 178207,56875 178207,52063 172582,52063 172582,56875 170942,56875 170942,46138 "/>
    <path class="fil0" d="M192675 47521c904,1008 1354,2346 1354,4000 0,1640 -450,2963 -1354,3986 -946,1052 -2241,1579 -3865,1579 -1639,0 -2931,-542 -3864,-1594 -903,-1023 -1338,-2346 -1338,-3971 0,-1639 435,-2962 1338,-3985 933,-1083 2225,-1609 3864,-1609 1624,0 2919,526 3865,1594zm-6525 1008l0 0c-603,736 -904,1730 -904,2992 0,1248 301,2241 904,2978 630,752 1517,1143 2660,1143 1144,0 2031,-375 2648,-1113 601,-722 917,-1729 917,-3008 0,-1293 -316,-2300 -917,-3037 -617,-752 -1504,-1113 -2648,-1113 -1143,0 -2030,376 -2660,1158z"/>
    <path class="fil0" d="M199431 46138l0 6677c0,962 209,1669 662,2135 450,467 1158,707 2134,707 963,0 1670,-240 2121,-707 436,-466 662,-1173 662,-2135l0 -6677 1638 0 0 6646c0,1400 -391,2467 -1158,3204 -767,722 -1850,1098 -3263,1098 -1429,0 -2512,-361 -3263,-1083 -783,-752 -1174,-1819 -1174,-3219l0 -6646 1641 0z"/>
    <path class="fil0" d="M217554 46724c752,556 1174,1414 1278,2587l-1624 0c-151,-692 -421,-1204 -842,-1504 -421,-315 -1024,-466 -1834,-466 -708,0 -1249,105 -1625,316 -466,240 -691,631 -691,1173 0,481 254,856 796,1143 241,135 858,361 1865,661 1443,452 2390,797 2813,1053 917,557 1383,1323 1383,2316 0,962 -377,1714 -1128,2270 -753,542 -1805,813 -3158,813 -1309,0 -2332,-271 -3068,-782 -887,-632 -1369,-1625 -1458,-2978l1622 0c121,843 422,1459 904,1820 437,331 1097,496 2000,496 812,0 1458,-150 1940,-421 481,-271 722,-646 722,-1128 0,-601 -346,-1068 -1024,-1413 -239,-121 -947,-361 -2134,-723 -1324,-421 -2137,-706 -2467,-886 -828,-497 -1233,-1219 -1233,-2151 0,-948 391,-1684 1188,-2226 753,-512 1699,-767 2842,-767 1249,0 2225,255 2933,797z"/>
    <polygon class="fil0" points="230414,46138 230414,47536 224338,47536 224338,50665 230052,50665 230052,52063 224338,52063 224338,55477 230668,55477 230668,56875 222698,56875 222698,46138 "/>
   </g>
  </g>
 </g>
</svg>
